<svg width="48" height="48" viewBox="0 0 48 48" fill="none" xmlns="http://www.w3.org/2000/svg" xmlns:xlink="http://www.w3.org/1999/xlink">
<path d="M38,8L36.984,8L32.616,2.336C32.053,1.612 31.333,1.025 30.509,0.62C29.686,0.215 28.781,0.003 27.864,0L20.136,0C19.219,0.003 18.314,0.215 17.491,0.62C16.667,1.025 15.947,1.612 15.384,2.336L11.016,8L10,8C7.349,8.003 4.807,9.058 2.932,10.932C1.058,12.807 0.003,15.349 0,18L0,38C0.003,40.651 1.058,43.193 2.932,45.068C4.807,46.942 7.349,47.997 10,48L38,48C40.651,47.997 43.193,46.942 45.068,45.068C46.942,43.193 47.997,40.651 48,38L48,18C47.997,15.349 46.942,12.807 45.068,10.932C43.193,9.058 40.651,8.003 38,8ZM18.552,4.78C18.739,4.538 18.979,4.342 19.254,4.207C19.528,4.072 19.83,4.001 20.136,4L27.864,4C28.17,4.001 28.471,4.072 28.746,4.207C29.02,4.343 29.26,4.538 29.448,4.78L31.932,8L16.068,8L18.552,4.78ZM44,38C44,39.591 43.368,41.117 42.243,42.243C41.117,43.368 39.591,44 38,44L10,44C8.409,44 6.883,43.368 5.757,42.243C4.632,41.117 4,39.591 4,38L4,18C4,16.409 4.632,14.883 5.757,13.757C6.883,12.632 8.409,12 10,12L38,12C39.591,12 41.117,12.632 42.243,13.757C43.368,14.883 44,16.409 44,18L44,38Z" fill="#000000"/>
<path d="M24,16C21.627,16 19.307,16.704 17.333,18.022C15.36,19.341 13.822,21.215 12.913,23.408C12.005,25.601 11.768,28.013 12.231,30.341C12.694,32.669 13.836,34.807 15.515,36.485C17.193,38.164 19.331,39.306 21.659,39.769C23.987,40.232 26.4,39.995 28.592,39.087C30.785,38.178 32.659,36.64 33.978,34.667C35.296,32.693 36,30.373 36,28C35.997,24.818 34.732,21.768 32.482,19.518C30.232,17.268 27.182,16.003 24,16ZM24,36C22.418,36 20.871,35.531 19.555,34.652C18.24,33.773 17.214,32.523 16.609,31.061C16.003,29.6 15.845,27.991 16.154,26.439C16.462,24.887 17.224,23.462 18.343,22.343C19.462,21.224 20.887,20.462 22.439,20.154C23.991,19.845 25.6,20.003 27.061,20.609C28.523,21.214 29.773,22.24 30.652,23.555C31.531,24.871 32,26.418 32,28C32,30.122 31.157,32.157 29.657,33.657C28.157,35.157 26.122,36 24,36Z" fill="#000000"/>
</svg>
