<svg width="390" height="392" viewBox="0 0 390 392" fill="none" xmlns="http://www.w3.org/2000/svg" xmlns:xlink="http://www.w3.org/1999/xlink">
<path d="M-1,196C-1,88.305 86.305,1 194,1C301.696,1 389,88.305 389,196C389,303.696 301.696,391 194,391C86.305,391 -1,303.696 -1,196ZM193,204C230.004,204 260,174.003 260,137C260,99.997 230.004,70 193,70C155.997,70 126,99.997 126,137C126,174.003 155.997,204 193,204ZM296.732,280.234C298.106,278.922 298.404,276.824 297.428,275.186C277.884,242.404 238.456,220 193.001,220C147.544,220 108.116,242.406 88.573,275.188C87.596,276.826 87.894,278.922 89.268,280.236C116.329,306.128 152.834,322 192.999,322C233.166,322 269.67,306.126 296.732,280.234Z" clip-rule="evenodd" fill-rule="evenodd" fill="#BABABA"/>
</svg>
