<svg width="48" height="48" viewBox="0 0 48 48" fill="none" xmlns="http://www.w3.org/2000/svg" xmlns:xlink="http://www.w3.org/1999/xlink">
<path d="M38,0L10,0C7.349,0.003 4.807,1.058 2.932,2.932C1.058,4.807 0.003,7.349 0,10L0,38C0.003,40.651 1.058,43.193 2.932,45.068C4.807,46.942 7.349,47.997 10,48L38,48C40.651,47.997 43.193,46.942 45.068,45.068C46.942,43.193 47.997,40.651 48,38L48,10C47.997,7.349 46.942,4.807 45.068,2.932C43.193,1.058 40.651,0.003 38,0ZM10,4L38,4C39.591,4 41.117,4.632 42.243,5.757C43.368,6.883 44,8.409 44,10L44,38C43.997,38.891 43.791,39.77 43.4,40.57L25.074,22.244C24.145,21.315 23.043,20.578 21.829,20.076C20.616,19.573 19.315,19.314 18.002,19.314C16.689,19.314 15.388,19.573 14.175,20.076C12.961,20.578 11.859,21.315 10.93,22.244L4,29.172L4,10C4,8.409 4.632,6.883 5.757,5.757C6.883,4.632 8.409,4 10,4ZM10,44C8.409,44 6.883,43.368 5.757,42.243C4.632,41.117 4,39.591 4,38L4,34.828L13.756,25.072C14.313,24.514 14.975,24.072 15.703,23.77C16.431,23.469 17.212,23.313 18,23.313C18.788,23.313 19.569,23.469 20.297,23.77C21.025,24.072 21.687,24.514 22.244,25.072L40.57,43.4C39.77,43.791 38.891,43.997 38,44L10,44Z" fill="#000000"/>
<path d="M32,21C33.384,21 34.738,20.589 35.889,19.82C37.04,19.051 37.937,17.958 38.467,16.679C38.997,15.4 39.136,13.992 38.865,12.634C38.595,11.276 37.929,10.029 36.95,9.05C35.971,8.071 34.724,7.405 33.366,7.135C32.008,6.864 30.6,7.003 29.321,7.533C28.042,8.063 26.949,8.96 26.18,10.111C25.411,11.262 25,12.616 25,14C25,15.857 25.737,17.637 27.05,18.95C28.363,20.262 30.143,21 32,21ZM32,11C32.593,11 33.173,11.176 33.667,11.506C34.16,11.835 34.545,12.304 34.772,12.852C34.999,13.4 35.058,14.003 34.942,14.585C34.827,15.167 34.541,15.702 34.121,16.121C33.702,16.541 33.167,16.827 32.585,16.942C32.003,17.058 31.4,16.999 30.852,16.772C30.304,16.545 29.835,16.16 29.506,15.667C29.176,15.173 29,14.593 29,14C29,13.204 29.316,12.441 29.879,11.879C30.441,11.316 31.204,11 32,11Z" fill="#000000"/>
</svg>
