<svg width="42" height="44" viewBox="0 0 42 44" fill="none" xmlns="http://www.w3.org/2000/svg" xmlns:xlink="http://www.w3.org/1999/xlink">
<path d="M37.511,33.003C36.479,32.014 35.475,30.997 34.499,29.953C33.679,29.12 33.186,28.514 33.186,28.514L27.016,25.568C29.486,22.766 30.849,19.16 30.85,15.425C30.85,6.921 23.931,0 15.425,0C6.919,0 0,6.921 0,15.425C0,23.929 6.919,30.85 15.425,30.85C19.31,30.85 22.851,29.396 25.568,27.018L28.514,33.188C28.514,33.188 29.12,33.682 29.953,34.501C30.806,35.301 31.927,36.383 33.003,37.514L35.995,40.581L37.326,42.004L42,37.331L40.576,36C39.741,35.18 38.626,34.091 37.511,33.003L37.511,33.003ZM15.425,26.443C9.35,26.443 4.407,21.5 4.407,15.425C4.407,9.35 9.35,4.407 15.425,4.407C21.5,4.407 26.443,9.35 26.443,15.425C26.443,21.5 21.5,26.443 15.425,26.443Z" fill="#BABABA"/>
</svg>
