<svg width="48" height="48" viewBox="0 0 48 48" fill="none" xmlns="http://www.w3.org/2000/svg" xmlns:xlink="http://www.w3.org/1999/xlink">
<path d="M48,24C48,20.748 46.572,17.68 44.15,15.752C44.43,12.508 43.27,9.33 40.97,7.028C38.67,4.73 35.5,3.572 32.416,3.918C28.388,-1.194 19.686,-1.29 15.752,3.848C12.504,3.56 9.33,4.726 7.03,7.028C4.732,9.328 3.572,12.508 3.92,15.582C-1.192,19.61 -1.29,28.312 3.85,32.248C3.57,35.492 4.73,38.67 7.03,40.972C9.33,43.27 12.504,44.432 15.584,44.082C19.612,49.194 28.314,49.29 32.248,44.152C35.488,44.424 38.668,43.274 40.97,40.972C43.268,38.672 44.428,35.492 44.08,32.418C46.572,30.322 48,27.254 48,24.002L48,24ZM35.08,21.132L25.602,30.268C23.276,32.59 19.47,32.57 17.144,30.242L12.64,26.058C11.832,25.306 11.784,24.04 12.536,23.232C13.29,22.422 14.558,22.378 15.362,23.128L19.918,27.362C20.754,28.196 22.018,28.194 22.798,27.412L32.302,18.25C33.098,17.486 34.364,17.508 35.13,18.302C35.898,19.096 35.874,20.364 35.08,21.13L35.08,21.132Z" fill="#008505"/>
</svg>
